<?xml version="1.0" encoding="utf-8"?>
<!-- Generator: Adobe Illustrator 23.0.1, SVG Export Plug-In . SVG Version: 6.00 Build 0)  -->
<svg version="1.1" id="Layer_1" xmlns="http://www.w3.org/2000/svg" xmlns:xlink="http://www.w3.org/1999/xlink" x="0px" y="0px"
	 viewBox="0 0 24 24" style="enable-background:new 0 0 24 24;" xml:space="preserve">
<path d="M15.54,12.969c-0.679,0-1.298,0.25-1.777,0.669l-1.298-0.749c0.09-0.29,0.13-0.599,0.13-0.919
	c0-0.319-0.04-0.629-0.12-0.919l1.258-0.729c0.479,0.439,1.118,0.699,1.807,0.699c1.488,0,2.696-1.208,2.696-2.696
	S17.027,5.63,15.54,5.63s-2.696,1.208-2.696,2.696c0,0.19,0.02,0.369,0.05,0.549l-1.258,0.729c-0.429-0.459-0.999-0.789-1.628-0.949
	V7.257c1.078-0.349,1.867-1.368,1.867-2.566c0-1.488-1.208-2.696-2.696-2.696c-1.488,0-2.696,1.208-2.696,2.696
	c0,1.198,0.779,2.207,1.857,2.566v1.408c-1.478,0.37-2.576,1.707-2.576,3.305c0,1.598,1.098,2.936,2.576,3.305v1.458
	c-1.078,0.359-1.857,1.368-1.857,2.566c0,1.488,1.208,2.696,2.696,2.696c1.488,0,2.696-1.208,2.696-2.696
	c0-1.198-0.789-2.217-1.867-2.566v-1.448c0.629-0.16,1.188-0.489,1.628-0.939l1.268,0.729c-0.04,0.19-0.06,0.389-0.06,0.589
	c0,1.488,1.208,2.696,2.696,2.696s2.696-1.208,2.696-2.696S17.027,12.969,15.54,12.969z M15.54,6.987
	c0.739,0,1.328,0.599,1.328,1.338s-0.589,1.338-1.328,1.338s-1.328-0.599-1.328-1.338S14.801,6.987,15.54,6.987z M7.851,4.691
	c0-0.739,0.589-1.338,1.328-1.338c0.739,0,1.328,0.599,1.328,1.338S9.918,6.029,9.179,6.029C8.44,6.029,7.851,5.43,7.851,4.691z
	 M10.507,19.299c0,0.739-0.589,1.338-1.328,1.338c-0.739,0-1.328-0.599-1.328-1.338c0-0.739,0.589-1.338,1.328-1.338
	C9.918,17.961,10.507,18.56,10.507,19.299z M9.179,13.887c-1.058,0-1.917-0.859-1.917-1.917c0-1.058,0.859-1.917,1.917-1.917
	s1.917,0.859,1.917,1.917C11.096,13.028,10.238,13.887,9.179,13.887z M15.54,17.002c-0.739,0-1.328-0.599-1.328-1.338
	s0.589-1.338,1.328-1.338s1.328,0.599,1.328,1.338S16.279,17.002,15.54,17.002z"/>
</svg>
