<?xml version="1.0" encoding="utf-8"?>
<svg version="1.1" xmlns="http://www.w3.org/2000/svg" xmlns:xlink="http://www.w3.org/1999/xlink" x="0px" y="0px"
	 viewBox="0 0 24 24" style="enable-background:new 0 0 24 24;" xml:space="preserve">
<path d="M16,5l-4-4v3c-1.5,0-3,0.4-4.2,1.2l1.5,1.5C10.1,6.2,11,6,12,6v3L16,5z M18.8,7.7l-1.5,1.5C17.7,10,18,11,18,12
	s-0.2,1.9-0.7,2.8l1.5,1.5C19.6,15,20,13.5,20,12C20,10.4,19.5,9,18.8,7.7z
	M19.9,19.9l-1.3,1.3l-2.4-2.4C15,19.6,13.5,20,12,20v3l-4-4l4-4v3c1,0,1.9-0.2,2.8-0.7L6.7,9.2C6.2,10.1,6,11,6,12
	s0.2,2,0.7,2.8l-1.5,1.5C4.5,15,4,13.6,4,12c0-1.5,0.4-3,1.2-4.2L2.9,5.4l1.3-1.3L19.9,19.9z"/>
</svg>
