<?xml version="1.0" encoding="utf-8"?>
<!-- Generator: Adobe Illustrator 23.0.1, SVG Export Plug-In . SVG Version: 6.00 Build 0)  -->
<svg version="1.1" id="Layer_1" xmlns="http://www.w3.org/2000/svg" xmlns:xlink="http://www.w3.org/1999/xlink" x="0px" y="0px"
	 viewBox="0 0 24 24" style="enable-background:new 0 0 24 24;" xml:space="preserve">
<path d="M18,2h-6v7L9.5,7.5L7,9V2H6C4.9,2,4,2.9,4,4v16c0,1.1,0.9,2,2,2h12c1.1,0,2-0.9,2-2V4C20,2.89,19.1,2,18,2z M17.68,18.41
	c-0.11,0.07-1.21,0.84-1.63,1.1c-0.42,0.28-2.04,1.21-1.79-0.59c0.63-3.64,1.85-5.8,0.39-4.86c-0.38,0.23-0.6,0.37-0.74,0.46
	c-0.13,0.09-0.12,0.08-0.23-0.11s-0.15-0.18-0.01-0.28c0,0,2.23-1.79,3.05-1.85c0.8-0.07,0.59,0.89,0.52,1.33
	c-0.46,1.85-1.3,4.54-1.17,4.93c0.11,0.39,0.93-0.23,1.37-0.52c0,0,0.08-0.09,0.17,0.03C17.72,18.22,17.83,18.3,17.68,18.41z
	 M16.97,11.06c-0.57,0-1.03-0.46-1.03-1.03C15.94,9.46,16.4,9,16.97,9C17.54,9,18,9.46,18,10.03C18,10.6,17.54,11.06,16.97,11.06z"
	/>
</svg>
