<?xml version="1.0" encoding="utf-8"?>
<!-- Generator: Adobe Illustrator 23.0.1, SVG Export Plug-In . SVG Version: 6.00 Build 0)  -->
<svg version="1.1" id="Layer_1" xmlns="http://www.w3.org/2000/svg" xmlns:xlink="http://www.w3.org/1999/xlink" x="0px" y="0px"
	 viewBox="0 0 24 24" style="enable-background:new 0 0 24 24;" xml:space="preserve">
<path d="M7,12h2v2H7V12 M21,6v14c0,1.10457-0.89543,2-2,2H5c-1.11,0-2-0.9-2-2V6c0-1.10457,0.89543-2,2-2h1V2h2v2h8V2h2v2h1
	C20.10457,4,21,4.89543,21,6 M5,8h14V6H5V8 M19,20V10H5v10H19 M15,14h2v-2h-2V14 M11,14h2v-2h-2V14z M15,18h2v-2h-2V18 M11,18h2v-2
	h-2V18 M7,18h2v-2H7V18"/>
</svg>
