<?xml version="1.0" encoding="utf-8"?>
<!-- Generator: Adobe Illustrator 23.0.3, SVG Export Plug-In . SVG Version: 6.00 Build 0)  -->
<svg version="1.1" id="Layer_1" xmlns="http://www.w3.org/2000/svg" xmlns:xlink="http://www.w3.org/1999/xlink" x="0px" y="0px"
	 viewBox="0 0 24 24" style="enable-background:new 0 0 24 24;" xml:space="preserve">
<path d="M21,5v4.45c-0.61-0.39-1.29-0.69-2-0.91V8H5v11h3.36c0.21,0.71,0.52,1.38,0.91,2H5c-1.11,0-2-0.9-2-2V5c0-1.11,0.89-2,2-2h1
	V1h2v2h8V1h2v2h1C20.1,3,21,3.9,21,5z M23,15.1421h-4.897l1.979-2.0368c-1.9718-1.9501-5.1642-2.0224-7.136-0.0722c-1.9718,1.9574-1.9718,5.1137,0,7.0783
	c1.9718,1.9501,5.1642,1.9501,7.136,0c0.9823-0.9751,1.4734-2.109,1.4734-3.5391H23c0,1.4301-0.6356,3.2863-1.9068,4.5431
	c-2.5352,2.5135-6.6521,2.5135-9.1873,0c-2.5279-2.5063-2.5496-6.5799-0.0144-9.0862s6.6016-2.5063,9.1367,0L23,9.9996V15.1421
	 M16.8607,13.6109v3.0697l2.5279,1.5023l-0.52,0.8739l-3.0913-1.8346v-3.6114H16.8607z"/>
</svg>
