<?xml version="1.0" encoding="utf-8"?>
<!-- Generator: Adobe Illustrator 23.0.1, SVG Export Plug-In . SVG Version: 6.00 Build 0)  -->
<svg version="1.1" id="Layer_1" xmlns="http://www.w3.org/2000/svg" xmlns:xlink="http://www.w3.org/1999/xlink" x="0px" y="0px"
	 viewBox="0 0 24 24" style="enable-background:new 0 0 24 24;" xml:space="preserve">
<path d="M9,10H7v2h2V10 M13,10h-2v2h2V10 M17,10h-2v2h2V10 M19,3h-1V1h-2v2H8V1H6v2H5C3.89,3,3,3.9,3,5v14c0,1.10457,0.89543,2,2,2
	h14c1.10457,0,2-0.89543,2-2V5C21,3.89543,20.10457,3,19,3 M19,19H5V8h14V19z M9,14H7v2h2V14 M13,14h-2v2h2V14 M17,14h-2v2h2V14"/>
</svg>
