<?xml version="1.0" encoding="utf-8"?>
<!-- Generator: Adobe Illustrator 23.0.3, SVG Export Plug-In . SVG Version: 6.00 Build 0)  -->
<svg version="1.1" id="Layer_1" xmlns="http://www.w3.org/2000/svg" xmlns:xlink="http://www.w3.org/1999/xlink" x="0px" y="0px"
	 viewBox="0 0 24 24" style="enable-background:new 0 0 24 24;" xml:space="preserve">
<path d="M21,5v4h-2V8H5v11h3.57c0.29,0.73,0.69,1.4,1.18,2H5c-1.11,0-2-0.9-2-2V5c0-1.11,0.89-2,2-2h1V1h2v2h8V1h2v2h1
	C20.1,3,21,3.9,21,5z M22,14.747h-4.5203l1.8268-1.8801c-1.8201-1.8001-4.767-1.8668-6.5871-0.0667c-1.8201,1.8068-1.8201,4.7203,0,6.5338
	c1.8201,1.8001,4.767,1.8001,6.5871,0c0.9067-0.9001,1.3601-1.9468,1.3601-3.2669H22c0,1.3201-0.5867,3.0335-1.7601,4.1936
	c-2.3402,2.3202-6.1404,2.3202-8.4806,0c-2.3335-2.3135-2.3535-6.0737-0.0133-8.3872s6.0937-2.3135,8.4339,0L22,10V14.747
	 M16.333,13.3336v2.8335l2.3335,1.3868l-0.48,0.8067l-2.8535-1.6934v-3.3336H16.333z"/>
</svg>
