<?xml version="1.0" encoding="utf-8"?>
<!-- Generator: Adobe Illustrator 22.1.0, SVG Export Plug-In . SVG Version: 6.00 Build 0)  -->
<svg version="1.1" id="Layer_1" xmlns="http://www.w3.org/2000/svg" xmlns:xlink="http://www.w3.org/1999/xlink" x="0px" y="0px"
	 viewBox="0 0 24 24" style="enable-background:new 0 0 24 24;" xml:space="preserve">
<path d="M11,3H5.8200073l4,4H11v1.1799927l2,2V5C13,3.9000244,12.0999756,3,11,3z M21.5,3h-5C15.6699829,3,15,3.6699829,15,4.5V12
	l3-3h3.5C22.3300171,9,23,8.3300171,23,7.5v-3C23,3.6699829,22.3300171,3,21.5,3z M13,12.7199707L3.3800049,3.0999756L1.9400024,1.6500244L0.6699829,2.9199829l1.4400024,1.4400024
	C2.039978,4.5599976,2,4.7800293,2,5v14c0,1.0999756,0.8900146,2,2,2h7c1.0999756,0,2-0.9000244,2-2v-3.75l7.0999756,7.0999756
	l1.2700195-1.2699585L13,12.7199707z M11,17H4V7h0.75L11,13.25V17z"/>
</svg>
