<?xml version="1.0" encoding="utf-8"?>
<!-- Generator: Adobe Illustrator 22.1.0, SVG Export Plug-In . SVG Version: 6.00 Build 0)  -->
<svg version="1.1" id="Layer_1" xmlns="http://www.w3.org/2000/svg" xmlns:xlink="http://www.w3.org/1999/xlink" x="0px" y="0px"
	 viewBox="0 0 24 24" style="enable-background:new 0 0 24 24;" xml:space="preserve">
<path d="M23.292,9.72c0-0.42-0.23-0.79-0.57-0.96c-0.05-0.02-0.11-0.05-0.18-0.06c-0.06-0.01-0.12-0.02-0.19-0.02
	c-0.07,0.01-0.14,0.01-0.21,0.01c-2.44,0.1-4.6-1.8-4.86-4.26c-0.03-0.24-0.02-0.51-0.01-0.55V3.84c0-0.5-0.4-0.91-0.9-0.91
	c-0.07,0-0.13,0.01-0.2,0.02c-2.39,0.32-4.3,1.91-5.1,4.01l-0.04,0.1v0.01C8.742,7.4,6.852,8.93,5.972,11c-2.76,0-5,2.24-5,5
	c0,2.76,2.24,5,5,5h13c2.21,0,4-1.79,4-4c0-1.3-0.62-2.45-1.58-3.19c1.07-1.03,1.76-2.41,1.89-3.97
	C23.292,9.8,23.292,9.76,23.292,9.72z M18.972,18.99h-13c-1.66,0-3-1.34-3-3c0-1.66,1.34-3,3-3c0.37,0,0.73,0.07,1.06,0.19
	c0.39-2.37,2.44-4.19,4.94-4.19c2.76,0,5,2.24,5,5v1h2c1.1,0,2,0.9,2,2C20.972,18.09,20.072,18.99,18.972,18.99z M21.572,10.19
	c-0.01,0.04-0.02,0.09-0.03,0.13c-0.27,1.12-0.89,2.1-1.77,2.76c-0.26-0.06-0.52-0.08-0.8-0.08l-0.5,0.02
	c-0.24-3.09-2.63-5.59-5.67-5.96V7.05l0.05-0.09c0.6-1.06,1.63-1.87,2.89-2.22c0.39,2.96,2.81,5.16,5.71,5.42
	c0.03,0,0.07,0.01,0.1,0.01c0.01,0,0.01,0,0.02,0C21.572,10.18,21.572,10.18,21.572,10.19z"/>
</svg>
