<?xml version="1.0" encoding="utf-8"?>
<!-- Generator: Adobe Illustrator 22.1.0, SVG Export Plug-In . SVG Version: 6.00 Build 0)  -->
<svg version="1.1" id="Layer_1" xmlns="http://www.w3.org/2000/svg" xmlns:xlink="http://www.w3.org/1999/xlink" x="0px" y="0px"
	 viewBox="0 0 24 24" style="enable-background:new 0 0 24 24;" xml:space="preserve">
<path d="M3.05,13H1v-2h2.05C3.5,6.83,6.83,3.5,11,3.05V1h2v2.05c4.17,0.45,7.5,3.78,7.95,7.95H23v2h-2.05
	c-0.45,4.17-3.78,7.5-7.95,7.95V23h-2v-2.05C6.83,20.5,3.5,17.17,3.05,13 M12,5c-3.866,0-7,3.134-7,7s3.134,7,7,7s7-3.134,7-7
	S15.866,5,12,5z M11.125,17.25h1.75V15.5h-1.75V17.25 M12,6.75c-1.933,0-3.5,1.567-3.5,3.5h1.75c0-0.966,0.784-1.75,1.75-1.75
	s1.75,0.784,1.75,1.75c0,1.75-2.625,1.531-2.625,4.375h1.75c0-1.969,2.625-2.188,2.625-4.375C15.5,8.317,13.933,6.75,12,6.75z"/>
</svg>
