<?xml version="1.0" encoding="utf-8"?><!-- Generator: Adobe Illustrator 23.0.1, SVG Export Plug-In . SVG Version: 6.00 Build 0)  --><svg version="1.1" id="Layer_1" xmlns="http://www.w3.org/2000/svg" xmlns:xlink="http://www.w3.org/1999/xlink" x="0px" y="0px"	 viewBox="0 0 24 24" style="enable-background:new 0 0 24 24;" xml:space="preserve">	<path d="M12.009,22c-1.675,0-3.171-1.482-4.106-4.067c-0.072-0.201,0.031-0.422,0.232-0.495		c0.2-0.074,0.422,0.031,0.495,0.232c0.805,2.227,2.068,3.557,3.378,3.557c0.932,0,1.858-0.681,2.609-1.918		c0.109-0.181,0.347-0.242,0.531-0.13c0.182,0.111,0.24,0.349,0.13,0.531C14.383,21.187,13.222,22,12.009,22z M15.911,17.716		c-0.038,0-0.078-0.006-0.116-0.018c-0.204-0.064-0.316-0.282-0.252-0.485c0.445-1.407,0.68-3.037,0.68-4.711		c0-3.855-1.257-7.266-3.034-8.366c-0.249,0.386-0.684,0.643-1.179,0.643c-0.771,0-1.399-0.623-1.399-1.389		C10.611,2.623,11.238,2,12.009,2c0.765,0,1.388,0.613,1.399,1.37c2.125,1.149,3.587,4.838,3.587,9.131		c0,1.752-0.247,3.462-0.715,4.944C16.228,17.61,16.075,17.716,15.911,17.716z M12.009,2.773c-0.345,0-0.625,0.276-0.625,0.616		c0,0.34,0.281,0.616,0.625,0.616c0.345,0,0.626-0.276,0.626-0.616C12.635,3.049,12.354,2.773,12.009,2.773z M4.08,18.537c-0.771,0-1.399-0.623-1.399-1.388c0-0.494,0.261-0.928,0.653-1.175		c-0.142-2.417,2.347-5.56,6.184-7.755c1.574-0.9,3.233-1.551,4.797-1.883c0.206-0.043,0.414,0.088,0.459,0.298		c0.044,0.209-0.089,0.414-0.298,0.458c-1.487,0.316-3.069,0.937-4.574,1.798C6.458,10.861,4.104,13.678,4.1,15.76		c0.762,0.011,1.378,0.63,1.378,1.388C5.478,17.915,4.851,18.537,4.08,18.537z M4.08,16.533c-0.345,0-0.625,0.276-0.625,0.616		c0,0.34,0.281,0.616,0.625,0.616s0.625-0.276,0.625-0.616C4.705,16.809,4.424,16.533,4.08,16.533z M18.521,13.44		c-0.089,0-0.178-0.03-0.251-0.092c-0.162-0.138-0.182-0.383-0.043-0.545c1.539-1.801,2.068-3.544,1.416-4.663		c-0.47-0.806-1.541-1.26-3.016-1.279c-0.213-0.003-0.384-0.178-0.381-0.392c0.003-0.214,0.182-0.37,0.391-0.382		c1.757,0.023,3.062,0.613,3.674,1.662c0.837,1.437,0.292,3.462-1.496,5.554C18.738,13.394,18.629,13.44,18.521,13.44z M16.524,18.899c-2.043,0-4.581-0.738-7.015-2.13c-1.557-0.89-2.944-1.975-4.013-3.139		c-0.144-0.157-0.134-0.402,0.023-0.546c0.157-0.146,0.401-0.135,0.546,0.023c1.015,1.106,2.339,2.14,3.828,2.991		c3.302,1.888,6.879,2.531,8.753,1.623c-0.08-0.174-0.124-0.369-0.124-0.572c0-0.766,0.627-1.388,1.398-1.388		c0.771,0,1.399,0.623,1.399,1.388c0,0.766-0.627,1.388-1.399,1.388c-0.276,0-0.533-0.079-0.751-0.217		C18.467,18.71,17.559,18.899,16.524,18.899z M19.525,17.626c0.108,0.087,0.245,0.139,0.395,0.139c0.345,0,0.626-0.276,0.626-0.616		c0-0.34-0.281-0.616-0.626-0.616s-0.625,0.276-0.625,0.616c0,0.142,0.05,0.274,0.133,0.378		C19.465,17.553,19.498,17.586,19.525,17.626z M4.46,11.99c-0.133,0-0.263-0.069-0.335-0.193c-0.897-1.55-1.048-2.991-0.425-4.061		c0.839-1.438,2.883-1.98,5.612-1.488c0.21,0.038,0.35,0.239,0.312,0.449C9.587,6.907,9.389,7.05,9.175,7.009		C6.821,6.586,5.024,7.002,4.369,8.126c-0.477,0.819-0.326,1.985,0.426,3.284c0.107,0.185,0.044,0.422-0.141,0.528		C4.593,11.974,4.526,11.99,4.46,11.99z M12.205,13.397c-0.5,0.107-0.992-0.208-1.1-0.703c-0.108-0.495,0.21-0.983,0.709-1.09c0.5-0.107,0.992,0.208,1.1,0.703C13.022,12.803,12.704,13.29,12.205,13.397z"/></svg>