<?xml version="1.0" encoding="utf-8"?>
<!-- Generator: Adobe Illustrator 22.1.0, SVG Export Plug-In . SVG Version: 6.00 Build 0)  -->
<svg version="1.1" id="Layer_1" xmlns="http://www.w3.org/2000/svg" xmlns:xlink="http://www.w3.org/1999/xlink" x="0px" y="0px"
	 viewBox="0 0 24 24" style="enable-background:new 0 0 24 24;" xml:space="preserve">
<path d="M14,2H6C4.895,2,4,2.895,4,4v16c0,1.105,0.895,2,2,2h12c1.105,0,2-0.895,2-2V8L14,2 M18,20H6V4h7v5h5V20z M13.714,11.786h1.143v1.143H16v1.143h-1.143v1.143h-1.143v-1.143h-1.143v-1.143h1.143V11.786z M9.143,10.643C8.512,10.643,8,11.155,8,11.786v4.571h1.143v-2.286h1.143v2.286h1.143v-4.571
	c0-0.631-0.512-1.143-1.143-1.143H9.143 M9.143,11.786h1.143v1.143H9.143V11.786z"/>
</svg>
