<?xml version="1.0" encoding="utf-8"?>
<!-- Generator: Adobe Illustrator 22.1.0, SVG Export Plug-In . SVG Version: 6.00 Build 0)  -->
<svg version="1.1" id="Layer_1" xmlns="http://www.w3.org/2000/svg" xmlns:xlink="http://www.w3.org/1999/xlink" x="0px" y="0px"
	 viewBox="0 0 24 24" style="enable-background:new 0 0 24 24;" xml:space="preserve">
<path d="M14,2H6C4.895,2,4,2.895,4,4v16c0,1.105,0.895,2,2,2h12c1.105,0,2-0.895,2-2V8L14,2 M18,20H6V4h7v5h5V20z M9.551,10.251h0.928l2.553,6.499h-1.114l-0.511-1.393H8.53L8.02,16.749H6.998L9.551,10.251 M8.902,14.428h2.228
	l-1.114-2.924L8.902,14.428 M16.998,12.897v0.928h-1.393v1.393h-0.928v-1.393h-1.393v-0.928h1.393v-1.393h0.928v1.393H16.998z"/>
</svg>
