<?xml version="1.0" encoding="utf-8"?>
<svg version="1.1" id="Layer_1" xmlns="http://www.w3.org/2000/svg" xmlns:xlink="http://www.w3.org/1999/xlink" x="0px" y="0px"
	 viewBox="0 0 24 24" xml:space="preserve">
<path d="M11.5,3c-4.7,0-8.6,3-10,7.2L3.9,11c1-3.2,4.1-5.5,7.6-5.5c2,0,3.7,0.7,5.1,1.9L14,10h7V3l-2.6,2.6C16.5,4,14.1,3,11.5,3
	 M19,14v6c0,1.1-0.9,2-2,2h-2c-1.1,0-2-0.9-2-2v-6c0-1.1,0.9-2,2-2h2C18.1,12,19,12.9,19,14 M15,14v6h2v-6H15
	 M7,12c-1.1,0-2,0.9-2,2v6c0,1.1,0.9,2,2,2h2c1.1,0,2-0.9,2-2v-2c0-1.1-0.9-2-2-2H7v-2h4v-2H7 M7,18h2v2H7V18z"/>
</svg>
