<?xml version="1.0" encoding="utf-8"?>
<!-- Generator: Adobe Illustrator 27.0.1, SVG Export Plug-In . SVG Version: 6.00 Build 0)  -->
<svg version="1.1" id="Layer_1" xmlns="http://www.w3.org/2000/svg" xmlns:xlink="http://www.w3.org/1999/xlink" x="0px" y="0px"
	 viewBox="0 0 24 24" style="enable-background:new 0 0 24 24;" xml:space="preserve">
<path d="M14,2H6C4.9,2,4,2.9,4,4v16c0,1.1,0.9,2,2,2h12c1.1,0,2-0.9,2-2V8L14,2 M18,20H6V4h7l5,5V20"/>
<path d="M10.9,8.5H9.5c-0.8,0-1.4,0.6-1.4,1.4v1.4c0,0.8,0.6,1.4,1.4,1.4h1.4c0.8,0,1.4-0.6,1.4-1.4V9.9C12.4,9.1,11.7,8.5,10.9,8.5
	z M9.5,11.4V9.9h1.4v1.4H9.5z"/>
<rect x="13.8" y="8.5" width="1.4" height="4.3"/>
<path d="M14.5,14.2h-1.4c-0.8,0-1.4,0.6-1.4,1.4v1.4c0,0.8,0.6,1.4,1.4,1.4h1.4c0.8,0,1.4-0.6,1.4-1.4v-1.4
	C15.9,14.9,15.3,14.2,14.5,14.2z M13.1,17.1v-1.4h1.4v1.4H13.1z"/>
<rect x="8.8" y="14.2" width="1.4" height="4.3"/>
</svg>
