<?xml version="1.0" encoding="utf-8"?>
<!-- Generator: Adobe Illustrator 23.0.1, SVG Export Plug-In . SVG Version: 6.00 Build 0)  -->
<svg version="1.1" id="Layer_1" xmlns="http://www.w3.org/2000/svg" xmlns:xlink="http://www.w3.org/1999/xlink" x="0px" y="0px"
	 viewBox="0 0 24 24" style="enable-background:new 0 0 24 24;" xml:space="preserve">
<path d="M5,3C3.89,3,3,3.89,3,5v14c0,1.11,0.89,2,2,2h14c1.11,0,2-0.89,2-2V5c0-1.11-0.89-2-2-2H5 M5,5h14v14H5V5 M18.07,13.54c-0.29-0.47-1.04-0.69-2.28-0.69c-0.41,0-0.84,0.02-1.29,0.07c-0.32-0.18-0.61-0.38-0.87-0.58 c-0.63-0.52-1.2-1.43-1.6-2.56c0.01-0.03,0.02-0.08,0.04-0.14c0.33-1.33,0.64-2.94-0.02-3.6c-0.16-0.16-0.38-0.24-0.61-0.24H11.2 c-0.37,0-0.7,0.39-0.79,0.77c-0.37,1.33-0.15,2.06,0.22,3.27v0.01c-0.25,0.88-0.57,1.9-1.08,2.93c-0.34,0.67-0.66,1.28-0.96,1.8 c-0.4,0.19-0.7,0.35-0.89,0.49c-1.2,0.75-1.77,1.59-1.88,2.12c-0.04,0.19-0.02,0.36,0.05,0.54l0.03,0.05l0.48,0.31 c0.12,0.07,0.28,0.11,0.44,0.11c0.81,0,1.73-0.95,2.97-3.07c0.07-0.03,0.13-0.05,0.18-0.07C11,14.73,12.28,14.5,14,14.31 c1,0.51,2.24,0.74,3,0.74c0.44,0,0.74-0.11,0.91-0.3c0.18-0.18,0.27-0.41,0.28-0.66C18.22,13.89,18.17,13.7,18.07,13.54z M6.64,17.5 c0.05-0.38,0.5-1.04,1.21-1.69c0.1-0.08,0.27-0.19,0.48-0.31C7.68,16.69,7.09,17.35,6.64,17.5z M11.28,6.54 c0.02-0.04,0.05-0.09,0.07-0.12l0.15,0.05c0.17,0.24,0.19,0.53,0.09,1.1l-0.03,0.16c-0.06,0.22-0.09,0.5-0.16,0.82l-0.05,0.04 C11.12,7.69,11.11,6.96,11.28,6.54z M10.03,14.34l-0.11,0.04c0.08-0.3,0.3-0.66,0.5-1.04c0.45-0.87,0.78-1.66,1.01-2.4 c0.41,0.9,0.93,1.64,1.53,2.15c0.12,0.11,0.26,0.22,0.41,0.32C12.5,13.57,11.3,13.85,10.03,14.34z M17.5,14.28h-0.04 c-0.06,0.01-0.12,0.02-0.19,0.02c-0.46,0-1.17-0.19-1.9-0.51c0.09-0.1,0.16-0.1,0.23-0.1c1.4,0,1.8,0.25,1.9,0.35 c0.05,0.04,0.07,0.08,0.09,0.11C17.58,14.25,17.55,14.26,17.5,14.28z"/>
</svg>
