<?xml version="1.0" encoding="utf-8"?>
<!-- Generator: Adobe Illustrator 22.1.0, SVG Export Plug-In . SVG Version: 6.00 Build 0)  -->
<svg version="1.1" id="Layer_1" xmlns="http://www.w3.org/2000/svg" xmlns:xlink="http://www.w3.org/1999/xlink" x="0px" y="0px"
	 viewBox="0 0 24 24" style="enable-background:new 0 0 24 24;" xml:space="preserve">
<path d="M14,2H6C4.895,2,4,2.895,4,4v16c0,1.105,0.895,2,2,2h12c1.105,0,2-0.895,2-2V8L14,2 M18,20H6V4h7v5h5V20z M14.1,11.622
	C13.711,11.233,13.244,11,12.233,11H9.278v7h1.244v-2.567h1.711c1.011,0,1.4-0.156,1.867-0.544c0.467-0.389,0.622-0.933,0.622-1.633
	C14.722,12.556,14.567,12.089,14.1,11.622z M13.089,14.111c-0.233,0.233-0.467,0.389-0.933,0.389h-1.633v-2.489h1.556
	c0.467,0,0.778,0.156,1.011,0.389c0.233,0.233,0.311,0.467,0.311,0.856C13.4,13.644,13.322,13.878,13.089,14.111z"/>
</svg>
