<?xml version="1.0" encoding="utf-8"?>
<!-- Generator: Adobe Illustrator 22.1.0, SVG Export Plug-In . SVG Version: 6.00 Build 0)  -->
<svg version="1.1" id="Layer_1" xmlns="http://www.w3.org/2000/svg" xmlns:xlink="http://www.w3.org/1999/xlink" x="0px" y="0px"
	 viewBox="0 0 24 24" style="enable-background:new 0 0 24 24;" xml:space="preserve">
<path d="M14,2H6C4.9,2,4,2.9,4,4v16c0,1.1,0.9,2,2,2h12c1.1,0,2-0.9,2-2V8L14,2L14,2z M18,20H6V4h7v5h5V20z M14,12c0,1.1-0.9,2-2,2
	s-2-0.9-2-2s0.9-2,2-2S14,10.9,14,12z M16,17v1H8v-1c0-1.3,2.7-2,4-2S16,15.7,16,17z"/>
</svg>
