<?xml version="1.0" encoding="utf-8"?>
<!-- Generator: Adobe Illustrator 22.1.0, SVG Export Plug-In . SVG Version: 6.00 Build 0)  -->
<svg version="1.1" id="Layer_1" xmlns="http://www.w3.org/2000/svg" xmlns:xlink="http://www.w3.org/1999/xlink" x="0px" y="0px"
	 viewBox="0 0 24 24" style="enable-background:new 0 0 24 24;" xml:space="preserve">
<path d="M14,2H6C4.9,2,4,2.9,4,4v16c0,1.1,0.9,2,2,2h12c1.1,0,2-0.9,2-2V8L14,2 M18,20H6V4h7v5h5V20z M10.3,12.2
	c0,0.6-0.5,1.2-1.2,1.2S8,12.8,8,12.2S8.5,11,9.2,11S10.3,11.5,10.3,12.2z M15,16.8c0,0.6-0.5,1.2-1.2,1.2s-1.2-0.5-1.2-1.2
	s0.5-1.2,1.2-1.2S15,16.2,15,16.8z M15,12.1L9.1,18L8,16.9l5.9-5.9L15,12.1z"/>
</svg>
