<?xml version="1.0" encoding="utf-8"?>
<!-- Generator: Adobe Illustrator 22.1.0, SVG Export Plug-In . SVG Version: 6.00 Build 0)  -->
<svg version="1.1" id="Layer_1" xmlns="http://www.w3.org/2000/svg" xmlns:xlink="http://www.w3.org/1999/xlink" x="0px" y="0px"
	 viewBox="0 0 24 24" style="enable-background:new 0 0 24 24;" xml:space="preserve">
<path d="M14,2H6C4.9,2,4,2.9,4,4v16c0,1.1,0.9,2,2,2h12c1.1,0,2-0.9,2-2V8L14,2 M18,20H6V4h7v5h5V20z M16,17.7L15.1,18
	c-0.4-1.2-1.6-2.1-3-2.1c-0.8,0-1.5,0.3-2,0.7l1.4,1.4H8v-3.5l1.4,1.4c0.7-0.6,1.7-1,2.7-1C13.9,14.9,15.5,16.1,16,17.7z"/>
</svg>
