<?xml version="1.0" encoding="utf-8"?>
<!-- Generator: Adobe Illustrator 23.0.1, SVG Export Plug-In . SVG Version: 6.00 Build 0)  -->
<svg version="1.1" id="Layer_1" xmlns="http://www.w3.org/2000/svg" xmlns:xlink="http://www.w3.org/1999/xlink" x="0px" y="0px"
	 viewBox="0 0 24 24" style="enable-background:new 0 0 24 24;" xml:space="preserve">
<path d="M5,3C3.89,3,3,3.89,3,5v14c0,1.11,0.89,2,2,2h14c1.11,0,2-0.89,2-2V5c0-1.11-0.89-2-2-2H5 M5,5h14v14H5V5 M13,12l3.2,5h-2L12,13.2L9.8,17h-2l3.2-5L7.8,7h2l2.2,3.8L14.2,7h2L13,12z"/>
</svg>
