<?xml version="1.0" encoding="utf-8"?>
<!-- Generator: Adobe Illustrator 23.0.1, SVG Export Plug-In . SVG Version: 6.00 Build 0)  -->
<svg version="1.1" id="Layer_1" xmlns="http://www.w3.org/2000/svg" xmlns:xlink="http://www.w3.org/1999/xlink" x="0px" y="0px"
	 viewBox="0 0 24 24" style="enable-background:new 0 0 24 24;" xml:space="preserve">
<path d="M14,2H6C4.895,2,4,2.895,4,4v16c0,1.105,0.895,2,2,2h12c1.105,0,2-0.895,2-2V8L14,2 M18,20H6V4h7v5h5V20z M15,13.009c0,1.88-2.25,2.06-2.25,3.75h-1.5c0-2.44,2.25-2.25,2.25-3.75c0-0.83-0.67-1.5-1.5-1.5s-1.5,0.67-1.5,1.5H9 c0-1.66,1.34-3,3-3S15,11.349,15,13.009z M12.75,17.509v1.5h-1.5v-1.5H12.75z"/>
</svg>
