<?xml version="1.0" encoding="utf-8"?>
<svg version="1.1" id="Layer_1" xmlns="http://www.w3.org/2000/svg" xmlns:xlink="http://www.w3.org/1999/xlink" x="0px" y="0px"
	 viewBox="0 0 24 24" style="enable-background:new 0 0 24 24;" xml:space="preserve">
<path d="M14,2H6C4.9,2,4,2.9,4,4v16c0,1.1,0.9,2,2,2h12c1.1,0,2-0.9,2-2V8L14,2z M14.3,7.1h1.8v5.5h-1.8V7.1z M9.7,19.9H7.9v-5.5 h1.8V19.9z M8.8,12.6c-1,0-1.8-0.8-1.8-1.8V9c0-1,0.8-1.8,1.8-1.8h1.8c1,0,1.8,0.8,1.8,1.8v1.8c0,1-0.8,1.8-1.8,1.8H8.8z M17,18 c0,1-0.8,1.8-1.8,1.8h-1.8c-1,0-1.8-0.8-1.8-1.8v-1.8c0-1,0.8-1.8,1.8-1.8h1.8c1,0,1.8,0.8,1.8,1.8V18z M10.6,9v1.8H8.8V9H10.6z M15.2,16.2V18h-1.8v-1.8H15.2z"/>
</svg>
