<?xml version="1.0" encoding="utf-8"?>
<svg version="1.1" id="Layer_1" xmlns="http://www.w3.org/2000/svg" xmlns:xlink="http://www.w3.org/1999/xlink" x="0px" y="0px"
	 viewBox="0 0 24 24" style="enable-background:new 0 0 24 24;" xml:space="preserve">
<path d="M14,2H6C4.9,2,4,2.9,4,4v16c0,1.1,0.9,2,2,2h12c1.1,0,2-0.9,2-2V8L14,2 M18,20H6V4h7l5,5V20 M11,7.3H9.8c-0.7,0-1.3,0.6-1.3,1.3v2.5c0,0.7,0.6,1.3,1.3,1.3H11c0.7,0,1.3-0.6,1.3-1.3V8.5C12.3,7.8,11.8,7.3,11,7.3z M9.8,11.1V8.5H11v2.5H9.8z M14.9,7.3v5.1h-1.3V7.3H14.9z M14.2,13.6H13c-0.7,0-1.3,0.6-1.3,1.3v2.5c0,0.7,0.6,1.3,1.3,1.3h1.3c0.7,0,1.3-0.6,1.3-1.3v-2.5 C15.5,14.2,14.9,13.6,14.2,13.6z M13,17.5v-2.5h1.3v2.5H13z M10.4,13.6v5.1H9.1v-5.1H10.4z"/>
</svg>
