<?xml version="1.0" encoding="utf-8"?>
<!-- Generator: Adobe Illustrator 22.1.0, SVG Export Plug-In . SVG Version: 6.00 Build 0)  -->
<svg version="1.1" id="Layer_1" xmlns="http://www.w3.org/2000/svg" xmlns:xlink="http://www.w3.org/1999/xlink" x="0px" y="0px"
	 viewBox="0 0 24 24" style="enable-background:new 0 0 24 24;" xml:space="preserve">
<path d="M14,2H6C4.9,2,4,2.9,4,4v16c0,1.1,0.9,2,2,2h12c1.1,0,2-0.9,2-2V8L14,2 M18,20H6V4h7v5h5V20z M11.9,15.5l2.1,2.1L12.6,19
	l-2.1-2.1L8.4,19L7,17.6l2.1-2.1L7,13.4L8.4,12l2.1,2.1l2.1-2.1l1.4,1.4L11.9,15.5z"/>
</svg>
