<?xml version="1.0" encoding="utf-8"?>
<!-- Generator: Adobe Illustrator 23.0.1, SVG Export Plug-In . SVG Version: 6.00 Build 0)  -->
<svg version="1.1" id="Layer_1" xmlns="http://www.w3.org/2000/svg" xmlns:xlink="http://www.w3.org/1999/xlink" x="0px" y="0px"
	 viewBox="0 0 24 24" style="enable-background:new 0 0 24 24;" xml:space="preserve">
<path d="M14,2H6C4.895,2,4,2.895,4,4v16c0,1.105,0.895,2,2,2h12c1.105,0,2-0.895,2-2V8L14,2 M18,20H6V4h7v5h5V20z"/>
<path d="M17,16.918c0,1.15-0.933,2.083-2.083,2.083H9.5c-1.383,0-2.5-1.117-2.5-2.5c0-1.292,0.975-2.35,2.233-2.5
	c0.517-0.983,1.558-1.667,2.767-1.667c1.517,0,2.783,1.083,3.067,2.5C16.142,14.927,17,15.818,17,16.918z"/>
</svg>
