<?xml version="1.0" encoding="utf-8"?>
<svg version="1.1" id="Layer_1" xmlns="http://www.w3.org/2000/svg" xmlns:xlink="http://www.w3.org/1999/xlink" x="0px" y="0px"
	 viewBox="0 0 24 24" style="enable-background:new 0 0 24 24;" xml:space="preserve">
<path d="M14,2H6C4.9,2,4,2.9,4,4v16c0,1.1,0.9,2,2,2h12c1.1,0,2-0.9,2-2V8L14,2z M10.2,20.5H8.8v-4.3h1.4V20.5z M9.5,14.8 c-0.8,0-1.4-0.6-1.4-1.4v-1.4c0-0.8,0.6-1.4,1.4-1.4h1.4c0.8,0,1.4,0.6,1.4,1.4v1.4c0,0.8-0.6,1.4-1.4,1.4H9.5z M15.9,19.1 c0,0.8-0.6,1.4-1.4,1.4h-1.4c-0.8,0-1.4-0.6-1.4-1.4v-1.4c0-0.8,0.6-1.4,1.4-1.4h1.4c0.8,0,1.4,0.6,1.4,1.4V19.1z M13.8,14.8v-4.3 h1.4v4.3H13.8z M13,9V3.5L18.5,9H13z M14.5,17.6v1.4h-1.4v-1.4H14.5z M10.9,11.9v1.4H9.5v-1.4H10.9z"/>
</svg>
