<?xml version="1.0" encoding="utf-8"?>
<svg version="1.1" id="Layer_1" xmlns="http://www.w3.org/2000/svg" xmlns:xlink="http://www.w3.org/1999/xlink" x="0px" y="0px"
	 viewBox="0 0 24 24" style="enable-background:new 0 0 24 24;" xml:space="preserve">
<path d="M14,2H6C4.9,2,4,2.9,4,4v16c0,1.1,0.9,2,2,2h12c1.1,0,2-0.9,2-2V8L14,2z M14,5.6h1.6v6.5H14V5.6z M10,20.4H8.3v-6.5H10V20.4
	z M9.1,12.2c-0.9,0-1.6-0.7-1.6-1.6V7.3c0-0.9,0.7-1.6,1.6-1.6h1.6c0.9,0,1.6,0.7,1.6,1.6v3.3c0,0.9-0.7,1.6-1.6,1.6
	C10.7,12.2,9.1,12.2,9.1,12.2z M16.5,18.7c0,0.9-0.7,1.6-1.6,1.6h-1.6c-0.9,0-1.6-0.7-1.6-1.6v-3.3c0-0.9,0.7-1.6,1.6-1.6h1.6
	c0.9,0,1.6,0.7,1.6,1.6V18.7z M9.1,7.3h1.6v3.3H9.1V7.3z M13.2,15.5h1.6v3.3h-1.6V15.5z"/>
</svg>
