<?xml version="1.0" encoding="utf-8"?>
<!-- Generator: Adobe Illustrator 23.0.1, SVG Export Plug-In . SVG Version: 6.00 Build 0)  -->
<svg version="1.1" id="Layer_1" xmlns="http://www.w3.org/2000/svg" xmlns:xlink="http://www.w3.org/1999/xlink" x="0px" y="0px"
	 viewBox="0 0 24 24" style="enable-background:new 0 0 24 24;" xml:space="preserve">
<path d="M5,3C3.89,3,3,3.89,3,5v14c0,1.11,0.89,2,2,2h14c1.11,0,2-0.89,2-2V5c0-1.11-0.89-2-2-2H5 M5,5h14v14H5V5 M15.1,7.88C14.45,7.29,13.83,7,12.3,7H8v10h1.8v-3.6h2.5c1.5,0,2.16-0.28,2.8-0.82c0.64-0.55,0.9-1.33,0.9-2.35 C16,9.26,15.75,8.5,15.1,7.88z M13.6,11.5c-0.32,0.31-0.7,0.5-1.38,0.5H9.8V8.4h2.3c0.66,0,1.17,0.25,1.5,0.6 c0.33,0.35,0.5,0.72,0.5,1.24C14.1,10.8,13.92,11.19,13.6,11.5z"/>
</svg>
