<?xml version="1.0" encoding="utf-8"?>
<!-- Generator: Adobe Illustrator 22.1.0, SVG Export Plug-In . SVG Version: 6.00 Build 0)  -->
<svg version="1.1" id="Layer_1" xmlns="http://www.w3.org/2000/svg" xmlns:xlink="http://www.w3.org/1999/xlink" x="0px" y="0px"
	 viewBox="0 0 24 24" style="enable-background:new 0 0 24 24;" xml:space="preserve">
<path d="M14,2H6C4.9,2,4,2.9,4,4v16c0,1.1,0.9,2,2,2h12c1.1,0,2-0.9,2-2V8L14,2 M18,20H6V4h7v5h5V20z M14.7,12.7c0,1.7-2,1.8-2,3.3
	h-1.3c0-2.2,2-2,2-3.3c0-0.7-0.6-1.3-1.3-1.3s-1.3,0.6-1.3,1.3H9.3c0-1.5,1.2-2.7,2.7-2.7S14.7,11.2,14.7,12.7z M12.7,16.7V18h-1.3
	v-1.3H12.7z"/>
</svg>
