<?xml version="1.0" encoding="utf-8"?>
<!-- Generator: Adobe Illustrator 23.0.1, SVG Export Plug-In . SVG Version: 6.00 Build 0)  -->
<svg version="1.1" id="Layer_1" xmlns="http://www.w3.org/2000/svg" xmlns:xlink="http://www.w3.org/1999/xlink" x="0px" y="0px"
	 viewBox="0 0 24 24" style="enable-background:new 0 0 24 24;" xml:space="preserve">
<path d="M14,2H6C4.9,2,4,2.9,4,4v16c0,0.41,0.12,0.8,0.34,1.12c0.07,0.11,0.16,0.21,0.25,0.29C4.95,21.78,5.45,22,6,22h7.53
	c-0.52-0.58-0.92-1.25-1.18-2H6V4h7v5h5v3c0.7,0,1.37,0.12,2,0.34V8L14,2z M18,23l5-4.5l-3-2.7L18,14v3h-4v3h4V23z"/>
</svg>
