<?xml version="1.0" encoding="utf-8"?>
<!-- Generator: Adobe Illustrator 23.0.1, SVG Export Plug-In . SVG Version: 6.00 Build 0)  -->
<svg version="1.1" id="Layer_1" xmlns="http://www.w3.org/2000/svg" xmlns:xlink="http://www.w3.org/1999/xlink" x="0px" y="0px"
	 viewBox="0 0 24 24" style="enable-background:new 0 0 24 24;" xml:space="preserve">
<path d="M14,2l6,6v12c0,1.1-0.9,2-2,2H6c-1.1,0-2-0.9-2-2V4c0-1.1,0.9-2,2-2H14 M18,20V9h-5V4H6v16H18"/>
<path d="M14,10v2h-3l0,4.9c0,0.87-0.51,1.72-1.34,1.99C8.29,19.35,7,18.32,7,17c0-1.1,0.9-2,2-2c0.36,0,0.71,0.1,1,0.27V10H14z"/>
</svg>
