<?xml version="1.0" encoding="utf-8"?>
<!-- Generator: Adobe Illustrator 23.0.1, SVG Export Plug-In . SVG Version: 6.00 Build 0)  -->
<svg version="1.1" id="Layer_1" xmlns="http://www.w3.org/2000/svg" xmlns:xlink="http://www.w3.org/1999/xlink" x="0px" y="0px"
	 viewBox="0 0 24 24" style="enable-background:new 0 0 24 24;" xml:space="preserve">
<path d="M14,2H6C4.9,2,4,2.9,4,4v16c0,1.1,0.9,2,2,2h12c1.1,0,2-0.9,2-2V8L14,2z M18,20H6V4h7l5,5V20z M17,13.235c0,2.629-2.133,4.762-4.762,4.762c-1.952,0-3.629-1.181-4.362-2.857h1.629c0.6,0.857,1.6,1.429,2.733,1.429 c1.838,0,3.333-1.495,3.333-3.333s-1.495-3.333-3.333-3.333c-1.286,0-2.381,0.743-2.952,1.81l1.524,1.524H7v-3.81l1.238,1.238 c0.848-1.314,2.314-2.19,4-2.19C14.867,8.473,17,10.606,17,13.235z"/>
</svg>
