<?xml version="1.0" encoding="utf-8"?>
<!-- Generator: Adobe Illustrator 22.1.0, SVG Export Plug-In . SVG Version: 6.00 Build 0)  -->
<svg version="1.1" id="Layer_1" xmlns="http://www.w3.org/2000/svg" xmlns:xlink="http://www.w3.org/1999/xlink" x="0px" y="0px"
	 viewBox="0 0 24 24" style="enable-background:new 0 0 24 24;" xml:space="preserve">
<path d="M14,2H6C4.9,2,4,2.9,4,4v16c0,1.1,0.9,2,2,2h12c1.1,0,2-0.9,2-2V8L14,2 M18,20H6V4h7v5h5V20z M14.6,14.5v-0.9
	c0-1.5-1.2-2.6-2.6-2.6s-2.6,1.2-2.6,2.6v0.9H8.5V18h7v-3.5H14.6z M12.9,14.5h-1.8v-0.9c0-0.5,0.4-0.9,0.9-0.9s0.9,0.4,0.9,0.9V14.5
	z"/>
</svg>
