<?xml version="1.0" encoding="utf-8"?>
<!-- Generator: Adobe Illustrator 23.0.1, SVG Export Plug-In . SVG Version: 6.00 Build 0)  -->
<svg version="1.1" id="Layer_1" xmlns="http://www.w3.org/2000/svg" xmlns:xlink="http://www.w3.org/1999/xlink" x="0px" y="0px"
	 viewBox="0 0 24 24" style="enable-background:new 0 0 24 24;" xml:space="preserve">
<path d="M14,2l6,6v12c0,1.1-0.9,2-2,2H6c-1.1,0-2-0.9-2-2V4c0-1.1,0.9-2,2-2H14 M18,20V9h-5V4H6v16H18 M17,13v6H7l5-5l2,2L17,13z M10,10.5c0,0.83-0.67,1.5-1.5,1.5S7,11.33,7,10.5S7.67,9,8.5,9S10,9.67,10,10.5z"/>
</svg>
