<?xml version="1.0" encoding="utf-8"?>
<!-- Generator: Adobe Illustrator 23.0.1, SVG Export Plug-In . SVG Version: 6.00 Build 0)  -->
<svg version="1.1" id="Layer_1" xmlns="http://www.w3.org/2000/svg" xmlns:xlink="http://www.w3.org/1999/xlink" x="0px" y="0px"
	 viewBox="0 0 24 24" style="enable-background:new 0 0 24 24;" xml:space="preserve">
<path d="M5,3C3.89,3,3,3.89,3,5v14c0,1.11,0.89,2,2,2h14c1.11,0,2-0.89,2-2V5c0-1.11-0.89-2-2-2H5 M5,5h14v14H5V5 M17.9,7l-2.4,10H14l-2-7.5L10,17H8.5L6.1,7h1.7l1.54,7.5L11.3,7h1.4l1.97,7.5L16.2,7H17.9z"/>
</svg>
