<?xml version="1.0" encoding="utf-8"?>
<!-- Generator: Adobe Illustrator 23.0.1, SVG Export Plug-In . SVG Version: 6.00 Build 0)  -->
<svg version="1.1" id="Layer_1" xmlns="http://www.w3.org/2000/svg" xmlns:xlink="http://www.w3.org/1999/xlink" x="0px" y="0px"
	 viewBox="0 0 24 24" style="enable-background:new 0 0 24 24;" xml:space="preserve">
<path d="M14,2H6C4.895,2,4,2.895,4,4v16c0,1.105,0.895,2,2,2h12c1.105,0,2-0.895,2-2V8L14,2 M18,20H6V4h7v5h5V20z M17,17.613l-1.158,0.383c-0.508-1.558-1.983-2.683-3.708-2.683c-0.967,0-1.825,0.35-2.508,0.917l1.775,1.767H7v-4.4 l1.758,1.758c0.9-0.783,2.075-1.267,3.375-1.267C14.4,14.088,16.325,15.572,17,17.613z"/>
</svg>
