<?xml version="1.0" encoding="utf-8"?>
<!-- Generator: Adobe Illustrator 22.1.0, SVG Export Plug-In . SVG Version: 6.00 Build 0)  -->
<svg version="1.1" id="Layer_1" xmlns="http://www.w3.org/2000/svg" xmlns:xlink="http://www.w3.org/1999/xlink" x="0px" y="0px"
	 viewBox="0 0 24 24" style="enable-background:new 0 0 24 24;" xml:space="preserve">
<path d="M2,20V6H0v14c0,1.1,0.9,2,2,2h18v-2H2z M22,4h-8l-2-2H6C5.6,2,5.2,2.1,4.9,2.3C4.7,2.5,4.5,2.7,4.3,2.9C4.1,3.2,4,3.6,4,4
	v12c0,0.4,0.1,0.8,0.3,1.1c0.1,0.1,0.2,0.2,0.2,0.3C5,17.8,5.5,18,6,18h16c1.1,0,2-0.9,2-2V6C24,4.9,23.1,4,22,4z M22,12h-3v3h-2v-3
	h-3v-2h3V7h2v3h3V12z"/>
</svg>
