<?xml version="1.0" encoding="utf-8"?>
<!-- Generator: Adobe Illustrator 22.1.0, SVG Export Plug-In . SVG Version: 6.00 Build 0)  -->
<svg version="1.1" id="Layer_1" xmlns="http://www.w3.org/2000/svg" xmlns:xlink="http://www.w3.org/1999/xlink" x="0px" y="0px"
	 viewBox="0 0 24 24" style="enable-background:new 0 0 24 24;" xml:space="preserve">
<path d="M22,4c1.1,0,2,0.9,2,2v10c0,1.1-0.9,2-2,2H6c-1.1,0-2-0.9-2-2V4c0-1.1,0.9-2,2-2h6l2,2H22L22,4z M2,6v14h18v2H2
	c-1.1,0-2-0.9-2-2v-9l0,0V6H2L2,6z M6,6v10h16V6H6z M14,10h2V8h2v2h2v2h-2v2h-2v-2h-2V10L14,10z"/>
</svg>
