<?xml version="1.0" encoding="utf-8"?>
<!-- Generator: Adobe Illustrator 23.0.1, SVG Export Plug-In . SVG Version: 6.00 Build 0)  -->
<svg version="1.1" id="Layer_1" xmlns="http://www.w3.org/2000/svg" xmlns:xlink="http://www.w3.org/1999/xlink" x="0px" y="0px"
	 viewBox="0 0 24 24" style="enable-background:new 0 0 24 24;" xml:space="preserve">
<path d="M19.99,6C18.17,3.57,15.27,2,12,2C8.28,2,5.03,4.04,3.31,7.06C3.04,7.52,2.82,8,2.63,8.5c-0.2,0.53-0.35,1.09-0.46,1.66  C2.06,10.75,2,11.37,2,12c0,5.52,4.48,10,10,10c0.63,0,1.25-0.06,1.84-0.17c1.12-0.21,2.16-0.6,3.11-1.14  C19.97,18.97,22,15.72,22,12C22,9.75,21.25,7.67,19.99,6z M4,12l8,8C7.58,20,4,16.42,4,12z M15.47,19.21  c-0.5,0.24-1.02,0.43-1.57,0.56L4.23,10.1c0.13-0.54,0.32-1.07,0.56-1.56V8.53C6.08,5.85,8.82,4,12,4c2.66,0,5.02,1.3,6.47,3.3  l-1.23,1.06C16.09,6.71,14.17,5.62,12,5.62c-2.73,0-5.07,1.73-5.97,4.15l8.2,8.2c1.97-0.73,3.47-2.4,3.96-4.47h-3.37V12H20  c0,0.51-0.05,1.02-0.14,1.5C19.38,16.03,17.72,18.13,15.47,19.21z"/>
</svg>
