<?xml version="1.0" encoding="utf-8"?>
<!-- Generator: Adobe Illustrator 23.0.1, SVG Export Plug-In . SVG Version: 6.00 Build 0)  -->
<svg version="1.1" id="Layer_1" xmlns="http://www.w3.org/2000/svg" xmlns:xlink="http://www.w3.org/1999/xlink" x="0px" y="0px"
	 viewBox="0 0 24 24" style="enable-background:new 0 0 24 24;" xml:space="preserve">
<path d="M17.681,7.221v1.395c0,0.683-0.555,1.247-1.249,1.247c-0.694,0-1.249-0.564-1.249-1.247V7.221
	c0-0.693,0.555-1.247,1.249-1.247C17.126,5.974,17.681,6.528,17.681,7.221z M13.249,8.359v7.273c0,0.683-0.555,1.247-1.249,1.247s-1.249-0.564-1.249-1.247V8.359c0-0.683,0.555-1.247,1.249-1.247
	S13.249,7.676,13.249,8.359z M21.998,11.302v1.395c0,0.683-0.555,1.247-1.249,1.247c-0.694,0-1.249-0.564-1.249-1.247v-1.395
	c0-0.693,0.555-1.247,1.249-1.247C21.442,10.056,21.998,10.61,21.998,11.302z M4.496,11.302v1.395c0,0.683-0.555,1.247-1.249,1.247c-0.694,0-1.249-0.564-1.249-1.247v-1.395
	c0-0.693,0.555-1.247,1.249-1.247C3.941,10.056,4.496,10.61,4.496,11.302z M8.818,15.377v1.395c0,0.683-0.555,1.247-1.249,1.247c-0.694,0-1.249-0.564-1.249-1.247v-1.395
	c0-0.693,0.555-1.247,1.249-1.247C8.262,14.13,8.818,14.684,8.818,15.377z M13.249,19.358v1.395C13.249,21.436,12.694,22,12,22c-0.694,0-1.249-0.564-1.249-1.247v-1.395
	c0-0.693,0.555-1.247,1.249-1.247C12.694,18.111,13.249,18.665,13.249,19.358z M13.249,3.247v1.395c0,0.683-0.555,1.247-1.249,1.247c-0.694,0-1.249-0.564-1.249-1.247V3.247C10.751,2.554,11.306,2,12,2
	C12.694,2,13.249,2.554,13.249,3.247z M17.681,12.336v4.433c0,0.693-0.555,1.247-1.249,1.247c-0.694,0-1.249-0.554-1.249-1.247v-4.433
	c0-0.693,0.555-1.247,1.249-1.247C17.126,11.09,17.681,11.644,17.681,12.336z M8.818,7.221v4.433c0,0.693-0.555,1.247-1.249,1.247c-0.694,0-1.249-0.554-1.249-1.247V7.221
	c0-0.693,0.555-1.247,1.249-1.247C8.262,5.974,8.818,6.528,8.818,7.221z"/>
</svg>
