<?xml version="1.0" encoding="UTF-8"?><!DOCTYPE svg PUBLIC "-//W3C//DTD SVG 1.1//EN" "http://www.w3.org/Graphics/SVG/1.1/DTD/svg11.dtd"><svg xmlns="http://www.w3.org/2000/svg" xmlns:xlink="http://www.w3.org/1999/xlink" version="1.1" width="24" height="24" viewBox="0 0 24 24"><path d="M19,15h-4c0,1.7-1.3,3-3,3s-3-1.3-3-3H5V5h14 M19,3H5C3.9,3,3,3.9,3,5v14c0,1.1,0.9,2,2,2h14c1.1,0,2-0.9,2-2V5 C21,3.9,20.1,3,19,3z M14.1,6.5l1.4,1.4L13.4,10l2.1,2.1l-1.4,1.4L12,11.4l-2.1,2.1l-1.4-1.4l2.1-2.1L8.5,7.9l1.4-1.4L12,8.6L14.1,6.5z" /></svg>