<?xml version="1.0" encoding="UTF-8"?><!DOCTYPE svg PUBLIC "-//W3C//DTD SVG 1.1//EN" "http://www.w3.org/Graphics/SVG/1.1/DTD/svg11.dtd"><svg xmlns="http://www.w3.org/2000/svg" xmlns:xlink="http://www.w3.org/1999/xlink" version="1.1" width="24" height="24" viewBox="0 0 24 24"><path d="M19,3H5C3.9,3,3,3.9,3,5v14c0,1.1,0.9,2,2,2h14c1.1,0,2-0.9,2-2V5C21,3.9,20.1,3,19,3 M5,19v-2h3.1c0.2,0.8,0.7,1.5,1.3,2 M19,19h-4.4c0.6-0.5,1.1-1.2,1.3-2H19 M19,15h-5v1c0,1.1-0.9,2-2,2s-2-0.9-2-2v-1H5V5h14V15z M14.1,6.5l1.4,1.4L13.4,10l2.1,2.1l-1.4,1.4L12,11.4l-2.1,2.1l-1.4-1.4l2.1-2.1L8.5,7.9l1.4-1.4L12,8.6L14.1,6.5z" /></svg>