<?xml version="1.0" encoding="utf-8"?>
<!-- Generator: Adobe Illustrator 23.0.1, SVG Export Plug-In . SVG Version: 6.00 Build 0)  -->
<svg xmlns="http://www.w3.org/2000/svg" xmlns:xlink="http://www.w3.org/1999/xlink" version="1.1" id="Layer_1" x="0px" y="0px" viewBox="0 0 24 24" style="enable-background:new 0 0 24 24;" xml:space="preserve">
<path d="M10.1,17.64c-0.07-0.38-0.1-0.76-0.1-1.14c0-0.17,0.01-0.33,0.02-0.5H8V8h2V6H6v12h4.17C10.14,17.88,10.12,17.76,10.1,17.64  z M13,6c-1.1,0-2,0.9-2,2v2.28c-0.59,0.34-1,0.98-1,1.72c0,0.61,0.28,1.17,0.72,1.53c0.08-0.15,0.16-0.3,0.25-0.44  c0.09-0.14,0.18-0.28,0.27-0.41c0.01-0.01,0.01-0.02,0.02-0.03c0.09-0.12,0.19-0.24,0.29-0.36c0.22-0.27,0.47-0.52,0.74-0.74  c0.12-0.1,0.24-0.2,0.36-0.29c0.01-0.01,0.02-0.01,0.03-0.02c0.13-0.09,0.27-0.18,0.41-0.27c0.14-0.09,0.29-0.17,0.44-0.25  c-0.15-0.18-0.33-0.33-0.53-0.44V8h3v2.02c0.17-0.01,0.33-0.02,0.5-0.02s0.34,0.01,0.51,0.02c0.28,0.02,0.55,0.07,0.82,0.13  c0.06,0.01,0.11,0.02,0.17,0.04V6H13z M13,6c-1.1,0-2,0.9-2,2v2.28c-0.59,0.34-1,0.98-1,1.72c0,0.61,0.28,1.17,0.72,1.53  c0.08-0.15,0.16-0.3,0.25-0.44c0.09-0.14,0.18-0.28,0.27-0.41c0.01-0.01,0.01-0.02,0.02-0.03c0.09-0.12,0.19-0.24,0.29-0.36  c0.22-0.27,0.47-0.52,0.74-0.74c0.12-0.1,0.24-0.2,0.36-0.29c0.01-0.01,0.02-0.01,0.03-0.02c0.13-0.09,0.27-0.18,0.41-0.27  c0.14-0.09,0.29-0.17,0.44-0.25c-0.15-0.18-0.33-0.33-0.53-0.44V8h3v2.02c0.17-0.01,0.33-0.02,0.5-0.02s0.34,0.01,0.51,0.02  c0.28,0.02,0.55,0.07,0.82,0.13c0.06,0.01,0.11,0.02,0.17,0.04V6H13z M10,16.5c0-0.17,0.01-0.33,0.02-0.5H8V8h2V6H6v12h4.17  c-0.03-0.12-0.05-0.24-0.07-0.36C10.03,17.26,10,16.88,10,16.5z M20,2H4C2.9,2,2,2.9,2,4v16c0,0.74,0.41,1.39,1.01,1.74  C3.3,21.91,3.64,22,4,22h9.05c-0.81-0.5-1.5-1.19-2.02-2H4V4h16v7.02c0.81,0.52,1.49,1.21,2,2.02V4C22,2.89,21.11,2,20,2z "/>
<path d="M16.51,12c2.5,0,4.5,2,4.5,4.5c0,0.88-0.25,1.71-0.69,2.4L23.4,22l-1.39,1.39l-3.12-3.07C18.2,20.75,17.38,21,16.51,21  c-2.5,0-4.5-2-4.5-4.5S14.01,12,16.51,12 M16.51,14c-1.38,0-2.5,1.12-2.5,2.5s1.12,2.5,2.5,2.5s2.5-1.12,2.5-2.5S17.89,14,16.51,14"/>
</svg>