<?xml version="1.0" encoding="utf-8"?>
<!-- Generator: Adobe Illustrator 22.1.0, SVG Export Plug-In . SVG Version: 6.00 Build 0)  -->
<svg version="1.1" id="Layer_1" xmlns="http://www.w3.org/2000/svg" xmlns:xlink="http://www.w3.org/1999/xlink" x="0px" y="0px"
	 viewBox="0 0 24 24" style="enable-background:new 0 0 24 24;" xml:space="preserve">
<path d="M18,8H4c-1.66,0-3,1.34-3,3v6h4v4h8.34c-0.02-0.06-0.04-0.11-0.06-0.17c-0.07-0.23-0.13-0.46-0.17-0.69
	c-0.03-0.17-0.06-0.34-0.08-0.52c0,0,0-0.01,0-0.02C13.01,19.41,13,19.2,13,19H7v-5h8v0.54c0.04-0.03,0.07-0.07,0.11-0.1
	c0.17-0.15,0.34-0.28,0.53-0.41c0.02-0.02,0.04-0.03,0.05-0.03c0.72-0.48,1.54-0.81,2.43-0.93L19,13c0.2,0,0.41,0.01,0.6,0.03
	c0.01,0,0.02,0,0.02,0c0.18,0.02,0.35,0.05,0.52,0.08c0.23,0.04,0.46,0.1,0.69,0.17c0.06,0.02,0.11,0.04,0.17,0.06V11
	C21,9.34,19.66,8,18,8z M18,12c-0.55,0-1-0.45-1-1s0.45-1,1-1s1,0.45,1,1S18.55,12,18,12z M5,3v4h12V3H5z M22.75,17.25L18,22l-2.75-3l1.16-1.16L18,19.43l3.59-3.59L22.75,17.25z"/>
</svg>
