<svg id="Layer_1" data-name="Layer 1" xmlns="http://www.w3.org/2000/svg" viewBox="0 0 24 24"><path d="M16,9a2.00052,2.00052,0,0,0-1.99,1.82l2.17,2.17A1.999,1.999,0,0,0,16,9Zm-1,5.35h-.01l3.96,3.96V18.3ZM7.64,7l5.01,5.01V12l-5-5ZM20,7h-.85a5.477,5.477,0,0,0-6.31,0H10.19L12.8,9.61a3.49268,3.49268,0,1,1,4.59,4.59l2.79,2.79A1.99338,1.99338,0,0,0,22,15V9A1.9931,1.9931,0,0,0,20,7ZM16,9a2.00052,2.00052,0,0,0-1.99,1.82l2.17,2.17A1.999,1.999,0,0,0,16,9Zm0,0a2.00052,2.00052,0,0,0-1.99,1.82l2.17,2.17A1.999,1.999,0,0,0,16,9Zm6.25,12.61L2.53,1.89,1.26,3.16,5.1,7H4A1.9931,1.9931,0,0,0,2,9v6a1.9931,1.9931,0,0,0,2,2H5v1a1.003,1.003,0,0,0,1,1H8a1.003,1.003,0,0,0,1-1V17h6v1a1.003,1.003,0,0,0,1,1h1.1l3.89,3.89,1.27-1.28ZM8,14H4V13H8Zm0-2H4V11H8Zm0-2H4V9H7.1l.9.9ZM2.54,1.89,7.64,7,2.53,1.89ZM7.65,7l5,5v.01L7.64,7Zm11.3,11.3v.01l-3.96-3.96H15ZM7.64,7,2.53,1.89H2.54Zm5.01,5v.01L7.64,7h.01Zm6.3,6.3v.01l-3.96-3.96H15Z"/></svg>