<?xml version="1.0" encoding="utf-8"?>
<svg version="1.1" id="Layer_1" xmlns="http://www.w3.org/2000/svg" xmlns:xlink="http://www.w3.org/1999/xlink" x="0px" y="0px"
	 viewBox="0 0 24 24" xml:space="preserve">
<path d="M19,14v6c0,1.1-0.9,2-2,2h-2c-1.1,0-2-0.9-2-2v-6c0-1.1,0.9-2,2-2h2C18.1,12,19,12.9,19,14 M15,14v6h2v-6H15 M12.5,3
	c4.6,0,8.6,3,10,7.2L20.1,11C19,7.8,16,5.5,12.5,5.5c-2,0-3.7,0.7-5.1,1.9L10,10H3V3l2.6,2.6C7.4,4,9.9,3,12.5,3z
	M7,12c-1.1,0-2,0.9-2,2v6c0,1.1,0.9,2,2,2h2c1.1,0,2-0.9,2-2v-2c0-1.1-0.9-2-2-2H7v-2h4v-2H7 M7,18h2v2H7V18z"/>
</svg>
