<?xml version="1.0" encoding="utf-8"?>
<!-- Generator: Adobe Illustrator 23.0.1, SVG Export Plug-In . SVG Version: 6.00 Build 0)  -->
<svg version="1.1" id="Layer_1" xmlns="http://www.w3.org/2000/svg" xmlns:xlink="http://www.w3.org/1999/xlink" x="0px" y="0px"
	 viewBox="0 0 24 24" style="enable-background:new 0 0 24 24;" xml:space="preserve">
<path d="M17,16.875c0.56,0,1,0.44,1,1s-0.44,1-1,1c-0.56,0-1-0.44-1-1S16.44,16.875,17,16.875 M17,13.875c2.73,0,5.06,1.66,6,4
	c-0.94,2.34-3.27,4-6,4s-5.06-1.66-6-4C11.94,15.535,14.27,13.875,17,13.875 M17,15.375c-1.38071,0-2.5,1.11929-2.5,2.5
	c0,1.38071,1.11929,2.5,2.5,2.5s2.5-1.11929,2.5-2.5C19.5,16.49429,18.38071,15.375,17,15.375"/>
<path d="M18,3H4C2.90002,3,2,3.90002,2,5v12c0,1.09998,0.90002,2,2,2h5.41998C9.26001,18.67999,9.12,18.34003,9,18
	c0.12-0.34003,0.26001-0.67999,0.41998-1H4v-4h6v2.96997c0.54999-0.85999,1.22998-1.59998,2-2.20996V13h1.15002
	C14.31,12.35999,15.62,12,17,12c1.06,0,2.07001,0.21002,3,0.59003V5C20,3.90002,19.09998,3,18,3z M10,11H4V7h6V11z M18,11h-6V7h6V11
	z"/>
</svg>
