<?xml version="1.0" encoding="utf-8"?>
<!-- Generator: Adobe Illustrator 23.0.1, SVG Export Plug-In . SVG Version: 6.00 Build 0)  -->
<svg version="1.1" id="Layer_1" xmlns="http://www.w3.org/2000/svg" xmlns:xlink="http://www.w3.org/1999/xlink" x="0px" y="0px"
	 viewBox="0 0 24 24" style="enable-background:new 0 0 24 24;" xml:space="preserve">
<path d="M5.34,17.24l-1.79,1.8l1.41,1.41l1.8-1.79L5.34,17.24z M11,20v2.95c0.32,0,2,0,2,0V20H11z M12,6c-3.31,0-6,2.69-6,6
	s2.69,6,6,6s6-2.69,6-6C18,8.68,15.31,6,12,6z M11.5,13.5c0,0.55-0.45,1-1,1h-1c-0.55,0-1-0.45-1-1v-4h1v4h1v-4h1V13.5z M14.5,14.5
	h-1l-1-5h1L14,12l0.5-2.5h1L14.5,14.5z M20,11v2h3v-2H20z M18.66,17.24l-1.42,1.42l1.8,1.79l1.41-1.41L18.66,17.24z M19.04,3.55
	l-1.8,1.79l1.42,1.42l1.79-1.8L19.04,3.55z M11,1.05V4h2V1.05H11z M1,11v2h3v-2H1z M4.96,3.55L3.55,4.96l1.79,1.8l1.42-1.42
	L4.96,3.55z"/>
</svg>
