<?xml version="1.0" encoding="utf-8"?>
<!-- Generator: Adobe Illustrator 23.0.1, SVG Export Plug-In . SVG Version: 6.00 Build 0)  -->
<svg version="1.1" id="Layer_1" xmlns="http://www.w3.org/2000/svg" xmlns:xlink="http://www.w3.org/1999/xlink" x="0px" y="0px"
	 viewBox="0 0 24 24" style="enable-background:new 0 0 24 24;" xml:space="preserve">
<path d="M12,2c0,1.66667,0,3.33333,0,5c-1.4,0-2.75,0-4,0l1.03-5H12z M15,2h-3c0,1.66667,0,3.33333,0,5c1.4,0,2.75,0,4,0L15,2z
	 M10,7C9,7,9,7,8,7v10c1,0,1,0,2,0V7z M8,17l1,5h3c0-1.66667,0-3.33333,0-5C10.6,17,9.2,17,8,17z M12,17c0,1.66667,0,3.33333,0,5h3
	l1-5C14.75,17,13.40143,17,12,17z M14,7v10c1,0,1,0,2,0V7C15,7,15,7,14,7z"/>
</svg>
