<?xml version="1.0" encoding="utf-8"?>
<!-- Generator: Adobe Illustrator 23.0.1, SVG Export Plug-In . SVG Version: 6.00 Build 0)  -->
<svg version="1.1" id="Layer_1" xmlns="http://www.w3.org/2000/svg" xmlns:xlink="http://www.w3.org/1999/xlink" x="0px" y="0px"
	 viewBox="0 0 24 24" style="enable-background:new 0 0 24 24;" xml:space="preserve">
<path d="M12,0c0,2,0,4,0,6c-1.4,0-2.75,0-4,0l1.03-6H12zM15,0H12c0,2,0,4,0,6c1.4,0,2.75,0,4,0L15,0zM10,6C9,6,9,6,8,6v12c1,0,1,0,2,0V6zM8,18l1,6H12c0-2,0-4,0-6C10.6,18,9.2,18,8,18zM12,18c0,2,0,4,0,6h3L16,18C14.75,18,13.40143,18,12,18zM14,6v12c1,0,1,0,2,0V6C15,6,15,6,14,6z"/>
</svg>
